<svg width="116" height="20" viewBox="0 0 116 20" fill="none" xmlns="http://www.w3.org/2000/svg">
<g id="Frame" clip-path="url(#clip0_2_5676)">
<path id="Vector" d="M40.4073 4.22233C39.6064 3.76645 38.703 3.53851 37.6971 3.53851H34.0334V14.9103H37.7745C38.7594 14.9061 39.6503 14.6698 40.4491 14.2035C41.2479 13.7372 41.8669 13.091 42.3082 12.2671C42.7473 11.4411 42.969 10.5084 42.969 9.46699V8.9442C42.9627 7.91325 42.7348 6.98268 42.2852 6.15248C41.8356 5.32228 41.2082 4.68029 40.4073 4.22442V4.22233ZM40.1731 9.46699C40.1731 10.5711 39.9619 11.4034 39.5394 11.9618C39.117 12.5201 38.5127 12.8003 37.7264 12.8003H36.7728V5.65687H37.695C38.5022 5.65687 39.117 5.935 39.5374 6.49334C39.9577 7.05169 40.171 7.8777 40.171 8.97766V9.46908L40.1731 9.46699Z" fill="#171C8F"/>
<path id="Vector_2" d="M47.6637 3.54059L43.4939 14.9124H46.4215L47.0782 12.7878H50.8339L51.4968 14.9124H54.4412L50.24 3.54059H47.6616H47.6637ZM47.7348 10.6715L48.954 6.72754L50.1794 10.6715H47.7348Z" fill="#171C8F"/>
<path id="Vector_3" d="M63.2596 3.54059H53.7552V5.65686H57.1052V14.9103H59.8468V5.65686H63.2596V3.54059Z" fill="#171C8F"/>
<path id="Vector_4" d="M66.7666 3.54059L62.5968 14.9124H65.5244L66.1811 12.7878H69.9368L70.5997 14.9124H73.5441L69.3429 3.54059H66.7645H66.7666ZM66.8377 10.6715L68.0569 6.72754L69.2823 10.6715H66.8377Z" fill="#171C8F"/>
<path id="Vector_5" d="M80.4826 3.54059H77.741V14.9103H85.2546V12.8024H80.4826V3.54059Z" fill="#171C8F"/>
<path id="Vector_6" d="M89.8468 3.54059L85.677 14.9124H88.6046L89.2613 12.7878H93.017L93.6799 14.9124H96.6243L92.4231 3.54059H89.8447H89.8468ZM89.9179 10.6715L91.1371 6.72754L92.3625 10.6715H89.9179Z" fill="#171C8F"/>
<path id="Vector_7" d="M103.6 3.54059L101.148 7.10813L100.196 8.55313V3.54059H97.4545V14.9103H100.196V11.9116L101.321 10.6778L103.741 14.9103H106.99L103.147 8.56986L106.99 3.54059H103.6Z" fill="#171C8F"/>
<path id="Vector_8" d="M115.535 5.65686V3.54059H107.685V14.9103H115.518V12.8024H110.426V10.0839H114.738V8.05334H110.426V5.65686H115.535Z" fill="#171C8F"/>
<path id="Vector_9" d="M19.6419 0.949585V8.6932H27.9899C27.3395 4.52968 23.8995 1.29254 19.6419 0.949585Z" fill="#171C8F"/>
<path id="Vector_10" d="M16.0848 12.2524V0.9245H13.4353C12.3625 0.9245 11.4884 1.76933 11.4382 2.83165H6.71637C6.5658 2.42596 6.17266 2.13529 5.71469 2.13529C5.12498 2.13529 4.6461 2.61417 4.6461 3.20388C4.6461 3.79359 5.12498 4.27247 5.71469 4.27247C6.17266 4.27247 6.5658 3.9818 6.71637 3.57611H11.432V7.93621H9.0543C9.03966 7.93621 9.0292 7.92575 9.0292 7.91111V5.97259C9.0292 5.95796 9.01875 5.9475 9.00411 5.9475H3.81591C3.81591 5.9475 3.80336 5.94959 3.79918 5.95377C3.6277 5.592 3.25965 5.34315 2.83306 5.34315C2.24334 5.34315 1.76447 5.82203 1.76447 6.41174C1.76447 7.00145 2.24334 7.48033 2.83306 7.48033C3.32657 7.48033 3.74272 7.14574 3.864 6.68987H8.25965C8.27429 6.68987 8.28475 6.70032 8.28475 6.71496V8.65348C8.28475 8.66812 8.2952 8.67857 8.30984 8.67857H11.4299V10.0734H7.93134C7.78077 9.6677 7.38763 9.37702 6.92967 9.37702C6.33995 9.37702 5.86108 9.8559 5.86108 10.4456C5.86108 11.0353 6.33995 11.5142 6.92967 11.5142C7.38763 11.5142 7.78077 11.2235 7.93134 10.8178H11.4299V11.7108H9.598C9.58336 11.7108 9.57291 11.7212 9.57291 11.7359V13.344C9.57291 13.3586 9.56245 13.3691 9.54782 13.3691H6.29604C6.14338 12.9655 5.75233 12.6769 5.29437 12.6769C4.70466 12.6769 4.22578 13.1558 4.22578 13.7455C4.22578 14.3352 4.70466 14.8141 5.29437 14.8141C5.75443 14.8141 6.14757 14.5213 6.29813 14.1135H10.2902C10.3048 14.1135 10.3153 14.1031 10.3153 14.0884V12.4803C10.3153 12.4657 10.3257 12.4552 10.3404 12.4552H11.4299V16.9429H9.22996C9.21532 16.9429 9.20486 16.9324 9.20486 16.9178V15.5753C9.20486 15.5606 9.19441 15.5502 9.17977 15.5502H4.78203C4.62937 15.1445 4.23832 14.8538 3.78036 14.8538C3.19065 14.8538 2.71177 15.3327 2.71177 15.9224C2.71177 16.5121 3.19065 16.991 3.78036 16.991C4.24042 16.991 4.63146 16.7003 4.78203 16.2925H8.43531C8.44995 16.2925 8.4604 16.303 8.4604 16.3176V17.6602C8.4604 17.6748 8.47086 17.6853 8.4855 17.6853H11.4612C11.6285 18.6221 12.4462 19.3352 13.4311 19.3352H19.2341C23.4353 19.1804 26.9171 16.2089 27.8498 12.2566H16.0786L16.0848 12.2524ZM5.71469 3.52801C5.53485 3.52801 5.38847 3.38163 5.38847 3.20179C5.38847 3.02195 5.53485 2.87556 5.71469 2.87556C5.89453 2.87556 6.04092 3.02195 6.04092 3.20179C6.04092 3.38163 5.89453 3.52801 5.71469 3.52801ZM2.83306 6.73378C2.65321 6.73378 2.50683 6.5874 2.50683 6.40756C2.50683 6.22772 2.65321 6.08133 2.83306 6.08133C3.0129 6.08133 3.15928 6.22772 3.15928 6.40756C3.15928 6.5874 3.0129 6.73378 2.83306 6.73378ZM6.93176 10.7677C6.75192 10.7677 6.60553 10.6213 6.60553 10.4414C6.60553 10.2616 6.75192 10.1152 6.93176 10.1152C7.1116 10.1152 7.25798 10.2616 7.25798 10.4414C7.25798 10.6213 7.1116 10.7677 6.93176 10.7677ZM5.29646 14.0675C5.11662 14.0675 4.97024 13.9211 4.97024 13.7413C4.97024 13.5615 5.11662 13.4151 5.29646 13.4151C5.4763 13.4151 5.62268 13.5615 5.62268 13.7413C5.62268 13.9211 5.4763 14.0675 5.29646 14.0675ZM3.78245 16.2423C3.60261 16.2423 3.45623 16.096 3.45623 15.9161C3.45623 15.7363 3.60261 15.5899 3.78245 15.5899C3.96229 15.5899 4.10867 15.7363 4.10867 15.9161C4.10867 16.096 3.96229 16.2423 3.78245 16.2423Z" fill="#171C8F"/>
<path id="Vector_11" d="M1.89414 10.4623C2.3521 10.4623 2.74315 10.1737 2.89581 9.77014H5.14173C5.15637 9.77014 5.16682 9.75968 5.16682 9.74504V8.17457C5.16682 8.15993 5.15637 8.14948 5.14173 8.14948H4.44955C4.43491 8.14948 4.42446 8.15993 4.42446 8.17457V9.00058C4.42446 9.01522 4.414 9.02568 4.39936 9.02568H2.89999C2.74943 8.6179 2.35628 8.32513 1.89623 8.32513C1.30652 8.32513 0.827637 8.80401 0.827637 9.39372C0.827637 9.98343 1.30652 10.4623 1.89623 10.4623H1.89414ZM1.89414 9.0675C2.07398 9.0675 2.22036 9.21388 2.22036 9.39372C2.22036 9.57356 2.07398 9.71995 1.89414 9.71995C1.71429 9.71995 1.56791 9.57356 1.56791 9.39372C1.56791 9.21388 1.71429 9.0675 1.89414 9.0675Z" fill="#171C8F"/>
<path id="Vector_12" d="M4.61681 12.6895C4.63145 12.6895 4.64191 12.679 4.64191 12.6644V11.027C4.64191 11.0123 4.65236 11.0019 4.667 11.0019H5.26926C5.2839 11.0019 5.29435 10.9914 5.29435 10.9768V10.2846C5.29435 10.27 5.2839 10.2595 5.26926 10.2595H3.92254C3.90791 10.2595 3.89745 10.27 3.89745 10.2846V11.922C3.89745 11.9366 3.88699 11.9471 3.87236 11.9471H2.94178C2.78913 11.5414 2.39808 11.2528 1.94011 11.2528C1.3504 11.2528 0.871521 11.7317 0.871521 12.3214C0.871521 12.9111 1.3504 13.39 1.94011 13.39C2.40017 13.39 2.79331 13.0972 2.94387 12.6895H4.61681ZM1.94011 12.6456C1.76027 12.6456 1.61389 12.4992 1.61389 12.3193C1.61389 12.1395 1.76027 11.9931 1.94011 11.9931C2.11995 11.9931 2.26633 12.1395 2.26633 12.3193C2.26633 12.4992 2.11995 12.6456 1.94011 12.6456Z" fill="#171C8F"/>
</g>
<defs>
<clipPath id="clip0_2_5676">
<rect width="114.709" height="18.4065" fill="white" transform="translate(0.825562 0.9245)"/>
</clipPath>
</defs>
</svg>
