<svg width="196" height="18" viewBox="0 0 196 18" fill="none" xmlns="http://www.w3.org/2000/svg">
<g id="Logo" clip-path="url(#clip0_2_5689)">
<path id="Vector" d="M10.6852 0.405396C7.52879 2.62275 3.95164 4.41418 0.0911777 5.71084L13.8069 13.6549L13.0254 13.9501L7.33764 10.9074C5.5054 9.89195 0.916119 10.6122 0 11.8736L10.5506 17.8466C13.6375 15.5001 17.2473 13.6496 21.188 12.3936L7.33764 4.59705L8.0714 4.11569L12.5652 6.72976C14.8142 8.02977 16.603 8.36356 21.4181 6.43463L10.6852 0.405396Z" fill="#9D9FA1"/>
<path id="Union" fill-rule="evenodd" clip-rule="evenodd" d="M122.226 9.75849C120.164 9.49849 119.291 8.53226 119.291 7.29901C119.291 5.03629 122.044 4.4425 125.53 4.4425C130.345 4.4425 132.316 5.44386 132.455 7.29901H127.501C127.497 7.14243 127.433 6.99069 127.318 6.8648C127.203 6.7389 127.043 6.64508 126.859 6.5963C126.439 6.45451 125.985 6.39087 125.53 6.41009C124.228 6.41009 123.832 6.67009 123.832 7.03901C123.832 7.29901 123.971 7.45009 124.384 7.48523L129.472 8.07902C131.643 8.33902 132.946 9.15767 132.946 10.6053C132.946 12.7134 130.775 13.7218 125.999 13.7218C122.743 13.7218 119.165 13.3493 119.122 10.788H124.258C124.247 10.9182 124.284 11.0482 124.365 11.1611C124.447 11.2739 124.568 11.3642 124.714 11.4204C125.183 11.5616 125.682 11.6249 126.181 11.6066C127.514 11.6066 127.879 11.308 127.879 10.9039C127.879 10.6439 127.697 10.3839 127.102 10.3101L122.191 9.75497L122.226 9.75849ZM70.3371 6.93711H67.376H67.3456V8.5709H70.3849C71.2098 8.5709 71.5745 8.3109 71.5745 7.75225C71.5745 7.08468 71.0275 6.93711 70.3371 6.93711ZM73.4459 10.7598L77.0669 13.4688H71.6483L68.0707 10.795H67.3369V13.4688H63.069V4.73763H72.0131C72.8915 4.69869 73.7695 4.81872 74.5834 5.08899C75.0406 5.30028 75.4184 5.60788 75.6768 5.97908C75.9353 6.35028 76.0645 6.77121 76.0509 7.19711C76.0509 7.26936 76.0539 7.35387 76.0571 7.44816C76.0908 8.41758 76.1603 10.4204 73.4459 10.7598ZM38.16 4.74814H32.151V13.4687H36.0499V7.23572L38.3424 13.4687H41.551L43.8 7.23572H43.8478V13.4687H47.699V4.74814H41.7377L39.9489 9.83223L38.16 4.74814ZM55.4773 7.42783L54.1943 10.3522H56.7603L55.4773 7.42783ZM58.0064 4.74814H52.7962L48.1939 13.4687H52.7658L53.2 12.4674H57.6504L58.1106 13.4687H62.5913L58.0064 4.74814ZM77.3274 4.74814H81.5911V10.0184C81.5911 11.1287 82.3726 11.5012 83.7924 11.5012C85.2121 11.5012 85.9937 11.1498 85.9937 10.0184V4.74814H90.2616V10.166C90.2616 12.9487 88.1949 13.7569 83.7967 13.7569C79.3985 13.7569 77.3274 12.9136 77.3274 10.166V4.74814ZM91.0865 6.93707H95.0289V13.4687H99.2969V6.93707H103.239V4.74814H91.0865V6.93707ZM108.376 4.74814H104.112V13.4687H108.376V4.74814ZM138.373 4.74814H134.105V10.166C134.105 12.9136 136.172 13.7674 140.574 13.7674C144.977 13.7674 147.039 12.9487 147.039 10.166V4.74814H142.776V10.0184C142.776 11.1498 141.998 11.5012 140.574 11.5012C139.15 11.5012 138.373 11.1287 138.373 10.0184V4.74814ZM148.142 11.6136L154.607 6.93707H148.598V4.74814H160.343V6.64194L154.056 11.2798H160.204V13.4687H148.142V11.6136ZM165.752 4.74814H161.489V10.1555C161.489 12.9031 163.538 13.7569 167.954 13.7569C172.369 13.7569 174.419 12.9487 174.419 10.166V4.74814H170.155V10.0184C170.155 11.1498 169.373 11.5012 167.954 11.5012C166.534 11.5012 165.752 11.1287 165.752 10.0184V4.74814ZM195.381 4.74814H191.117V13.4687H195.381V4.74814ZM180.384 13.4687H176.255V4.74814H180.384V7.75221L185.017 4.74814H190.197L183.962 9.01709L189.875 13.4687H184.466L180.293 10.3522L180.384 13.4687Z" fill="#171C8F"/>
</g>
<defs>
<clipPath id="clip0_2_5689">
<rect width="195.381" height="17.4447" fill="white" transform="translate(0 0.405396)"/>
</clipPath>
</defs>
</svg>
